<svg width="128" height="128" xmlns="http://www.w3.org/2000/svg">
  <path d="M32 16h72a8 8 0 0 1 8 8v80a8 8 0 0 1-8 8H32a8 8 0 0 1-8-8V24a8 8 0 0 1 8-8z" fill="none" stroke="currentColor" stroke-width="6"/>
  <path d="M48 16v96" stroke="currentColor" stroke-width="4"/>
  <circle cx="40" cy="28" r="5" fill="none" stroke="currentColor" stroke-width="3"/>
  <circle cx="40" cy="48" r="5" fill="none" stroke="currentColor" stroke-width="3"/>
  <circle cx="40" cy="68" r="5" fill="none" stroke="currentColor" stroke-width="3"/>
  <circle cx="40" cy="88" r="5" fill="none" stroke="currentColor" stroke-width="3"/>
  <circle cx="40" cy="108" r="5" fill="none" stroke="currentColor" stroke-width="3"/>
  <path d="M60 40h32M60 56h32M60 72h24" stroke="currentColor" stroke-width="5" stroke-linecap="round"/>
</svg>