<svg width="128" height="128" xmlns="http://www.w3.org/2000/svg">
  <path d="M24 16h80a8 8 0 0 1 8 8v80a8 8 0 0 1-8 8H24a8 8 0 0 1-8-8V24a8 8 0 0 1 8-8z" fill="none" stroke="currentColor" stroke-width="6"/>
  <path d="M44 8v112" stroke="currentColor" stroke-width="4"/>
  <path d="M60 40h32M60 56h32M60 72h24" stroke="currentColor" stroke-width="5" stroke-linecap="round"/>
  <rect x="84" y="84" width="20" height="16" rx="2" fill="none" stroke="currentColor" stroke-width="4"/>
  <path d="M88 84v-8a6 6 0 0 1 12 0v8" fill="none" stroke="currentColor" stroke-width="3"/>
</svg>