<svg width="128" height="128" xmlns="http://www.w3.org/2000/svg">
  <path d="M24 20c0-8 6-12 12-12s12 4 12 12v88c0 8-6 12-12 12s-12-4-12-12V20z" fill="none" stroke="currentColor" stroke-width="6"/>
  <path d="M80 20c0-8 6-12 12-12s12 4 12 12v88c0 8-6 12-12 12s-12-4-12-12V20z" fill="none" stroke="currentColor" stroke-width="6"/>
  <path d="M36 24h44" stroke="currentColor" stroke-width="4"/>
  <path d="M36 104h44" stroke="currentColor" stroke-width="4"/>
  <path d="M40 44h36M40 60h36M40 76h28" stroke="currentColor" stroke-width="4" stroke-linecap="round"/>
</svg>